<?xml version="1.0" encoding="iso-8859-1"?>
<!-- Generator: Adobe Illustrator 19.0.0, SVG Export Plug-In . SVG Version: 6.00 Build 0)  -->
<svg version="1.1" id="Capa_1" xmlns="http://www.w3.org/2000/svg" xmlns:xlink="http://www.w3.org/1999/xlink" x="0px" y="0px"
	 viewBox="0 0 363.2 363.2" style="enable-background:new 0 0 363.2 363.2;" xml:space="preserve">
<path style="fill:#F4F4F4;" d="M83,7.2C62.6,7.2,45.8,24,45.8,44.4V318c0,20.4,16.8,37.2,37.2,37.2h197.2
	c20.4,0,37.2-16.8,37.2-37.2V83.6L249.8,7.2H83z"/>
<polygon style="fill:#C6C6C6;" points="249.8,83.6 317.4,83.6 249.8,7.2 "/>
<polygon style="fill:#8ACC00;" points="221.4,133.6 181.8,133.6 142.2,133.6 142.2,191.2 112.2,191.2 181.8,266.4 251.4,191.2 
	221.4,191.2 "/>
<g>
	<path style="fill:#191919;" d="M323.8,80c-0.4-0.4-0.4-0.8-0.8-1.2L255,2.4l0,0c-0.4-0.4-1.2-0.8-1.6-1.2c-0.4,0-0.4-0.4-0.8-0.4
		c-0.8-0.4-2-0.8-2.8-0.8H83C58.2,0,38.2,20,38.2,44.8v273.6c0,24.8,20,44.8,44.8,44.8h197.2c24.8,0,44.8-20,44.8-44.8V83.6
		c0-0.8-0.4-2-0.4-2.8C324.2,80.4,324.2,80,323.8,80z M257,26.8L301,76h-44V26.8z M310.2,318c0,16.4-13.2,29.6-29.6,29.6H83
		c-16.4,0-29.6-13.2-29.6-29.6V44.4C53.4,28,66.6,14.8,83,14.8h159.2v68.8c0,4,3.2,7.6,7.6,7.6h60.4V318z"/>
	<path style="fill:#191919;" d="M251.4,183.6H229v-50c0-4-3.2-7.6-7.6-7.6h-79.2c-4,0-7.6,3.2-7.6,7.6V184h-22.4
		c-2.8,0-5.6,1.6-6.8,4.4s-0.8,6,1.2,8l69.6,75.2c1.6,1.6,3.2,2.4,5.6,2.4c2,0,4-0.8,5.6-2.4l69.6-75.2c2-2,2.4-5.2,1.2-8
		C257,185.6,254.2,183.6,251.4,183.6z M181.8,255.6l-52.4-56.8h12.8c4,0,7.6-3.2,7.6-7.6v-50.4h64.4v50.4c0,4,3.2,7.6,7.6,7.6h12.8
		L181.8,255.6z"/>
</g>
<g>
</g>
<g>
</g>
<g>
</g>
<g>
</g>
<g>
</g>
<g>
</g>
<g>
</g>
<g>
</g>
<g>
</g>
<g>
</g>
<g>
</g>
<g>
</g>
<g>
</g>
<g>
</g>
<g>
</g>
</svg>
